<svg width="22" height="28" viewBox="0 0 22 28" fill="none" xmlns="http://www.w3.org/2000/svg">
<path d="M22 8.25L13.75 0H2.75C2.02065 0 1.32118 0.289731 0.805456 0.805456C0.289731 1.32118 0 2.02065 0 2.75V24.75C0 25.4793 0.289731 26.1788 0.805456 26.6945C1.32118 27.2103 2.02065 27.5 2.75 27.5H19.25C19.9793 27.5 20.6788 27.2103 21.1945 26.6945C21.7103 26.1788 22 25.4793 22 24.75V8.25ZM6.875 23.375H4.125V11H6.875V23.375ZM12.375 23.375H9.625V15.125H12.375V23.375ZM17.875 23.375H15.125V19.25H17.875V23.375ZM13.75 9.625H12.375V2.75L19.25 9.625H13.75Z" />
</svg>
