<svg width="28" height="28" viewBox="0 0 28 28" fill="none" xmlns="http://www.w3.org/2000/svg">
<path d="M26.8412 16.7526L23.9349 13.8463C23.7532 13.6647 23.5069 13.5627 23.25 13.5627C22.9931 13.5627 22.7468 13.6647 22.5651 13.8463L13.5625 22.8489V27.125H17.8386L26.8412 18.1224C27.0228 17.9407 27.1248 17.6944 27.1248 17.4375C27.1248 17.1806 27.0228 16.9343 26.8412 16.7526ZM17.0364 25.1875H15.5V23.6511L20.3437 18.8073L21.8802 20.3438L17.0364 25.1875ZM23.25 18.9739L21.7136 17.4375L23.25 15.9011L24.7864 17.4375L23.25 18.9739ZM5.8125 13.5625H15.5V15.5H5.8125V13.5625ZM5.8125 7.75H17.4375V9.6875H5.8125V7.75Z"/>
<path d="M23.25 1.9375C23.2495 1.4238 23.0452 0.931288 22.682 0.568047C22.3187 0.204806 21.8262 0.000512931 21.3125 0H1.93751C1.42381 0.000512931 0.931294 0.204806 0.568054 0.568047C0.204813 0.931288 0.000519574 1.4238 6.6435e-06 1.9375V14.5312C-0.00215224 16.4633 0.521891 18.3594 1.51589 20.0161C2.50988 21.6728 3.93629 23.0276 5.64201 23.9349L10.6563 26.6087V24.4125L6.55457 22.2251C5.15894 21.4827 3.9918 20.3743 3.17839 19.0189C2.36498 17.6634 1.936 16.112 1.93751 14.5312V1.9375H21.3125V10.6562H23.25V1.9375Z"/>
</svg>
