<svg width="67" height="54" viewBox="0 0 67 54" fill="none" xmlns="http://www.w3.org/2000/svg">
<path d="M60.3 0H6.7C3.00495 0 0 3.02737 0 6.75V47.25C0 50.9726 3.00495 54 6.7 54H60.3C63.995 54 67 50.9726 67 47.25V6.75C67 3.02737 63.995 0 60.3 0ZM15.075 10.125C16.4077 10.125 17.6858 10.6584 18.6282 11.6078C19.5706 12.5572 20.1 13.8448 20.1 15.1875C20.1 16.5302 19.5706 17.8178 18.6282 18.7672C17.6858 19.7166 16.4077 20.25 15.075 20.25C13.7423 20.25 12.4642 19.7166 11.5218 18.7672C10.5794 17.8178 10.05 16.5302 10.05 15.1875C10.05 13.8448 10.5794 12.5572 11.5218 11.6078C12.4642 10.6584 13.7423 10.125 15.075 10.125ZM33.5 43.875H10.05L23.45 27L28.475 33.75L38.525 20.25L56.95 43.875H33.5Z"/>
</svg>
