<svg width="33" height="36" viewBox="0 0 33 36" fill="none" xmlns="http://www.w3.org/2000/svg">
<path d="M32.5 27.2275L30 25.9775V23C29.997 21.2292 29.368 19.5166 28.2243 18.1647C27.0806 16.8129 25.4958 15.9089 23.75 15.6125V13H21.25V15.6125C19.5042 15.9089 17.9194 16.8129 16.7757 18.1647C15.632 19.5166 15.003 21.2292 15 23V25.9775L12.5 27.2275V33H20V35.5H25V33H32.5V27.2275ZM30 30.5H15V28.7725L17.5 27.5225V23C17.5 21.6739 18.0268 20.4021 18.9645 19.4645C19.9021 18.5268 21.1739 18 22.5 18C23.8261 18 25.0979 18.5268 26.0355 19.4645C26.9732 20.4021 27.5 21.6739 27.5 23V27.5225L30 28.7725V30.5Z" />
<path d="M30 5.5C30 4.83696 29.7366 4.20107 29.2678 3.73223C28.7989 3.26339 28.163 3 27.5 3H22.5V0.5H20V3H10V0.5H7.5V3H2.5C1.83696 3 1.20107 3.26339 0.732233 3.73223C0.263392 4.20107 0 4.83696 0 5.5V30.5C0 31.163 0.263392 31.7989 0.732233 32.2678C1.20107 32.7366 1.83696 33 2.5 33H7.5V30.5H2.5V5.5H7.5V8H10V5.5H20V8H22.5V5.5H27.5V13H30V5.5Z" />
</svg>
