<svg width="44" height="45" viewBox="0 0 44 45" fill="none" xmlns="http://www.w3.org/2000/svg">
<g clip-path="url(#clip0_36_5)">
<path d="M22.125 0.5C26.4515 0.5 30.6808 1.78295 34.2781 4.1866C37.8754 6.59026 40.6792 10.0067 42.3349 14.0038C43.9905 18.0009 44.4237 22.3993 43.5797 26.6426C42.7356 30.8859 40.6522 34.7837 37.593 37.843C34.5337 40.9022 30.6359 42.9856 26.3926 43.8297C22.1493 44.6737 17.7509 44.2405 13.7538 42.5849C9.75667 40.9292 6.34026 38.1254 3.9366 34.5281C1.53295 30.9308 0.25 26.7015 0.25 22.375C0.256617 16.5754 2.56342 11.0153 6.66435 6.91435C10.7653 2.81342 16.3254 0.506617 22.125 0.5ZM3.375 22.375C3.375 26.8062 4.95 31.0937 7.82187 34.4687L34.2187 8.07187C31.4923 5.75882 28.1606 4.27459 24.6175 3.79455C21.0744 3.31452 17.4679 3.85875 14.2243 5.36293C10.9806 6.86711 8.2353 9.26838 6.31276 12.283C4.39023 15.2976 3.37082 18.7995 3.375 22.375ZM40.875 22.375C40.875 17.9437 39.3 13.6562 36.4281 10.2812L10.0312 36.6781C12.7577 38.9912 16.0894 40.4754 19.6325 40.9554C23.1756 41.4355 26.782 40.8912 30.0257 39.3871C33.2694 37.8829 36.0147 35.4816 37.9372 32.467C39.8598 29.4524 40.8792 25.9505 40.875 22.375Z" />
<path d="M28.875 22.4449C25.08 22.4449 22 25.5249 22 29.3199C22 33.1149 25.08 36.1949 28.875 36.1949C32.67 36.1949 35.75 33.1149 35.75 29.3199C35.75 25.5249 32.67 22.4449 28.875 22.4449ZM31.1437 32.5512L28.1875 29.5949V25.1949H29.5625V29.0312L32.1063 31.5749L31.1437 32.5512ZM33 10.0699H25.8775C25.3 8.47495 23.7875 7.31995 22 7.31995C20.2125 7.31995 18.7 8.47495 18.1225 10.0699H11V36.1949H22.1512C21.3378 35.4054 20.676 34.4733 20.1987 33.4449H13.75V12.8199H16.5V16.9449H27.5V12.8199H30.25V19.8049C31.2262 19.9424 32.1475 20.2312 33 20.6299V10.0699ZM22 12.8199C21.2437 12.8199 20.625 12.2012 20.625 11.4449C20.625 10.6887 21.2437 10.0699 22 10.0699C22.7563 10.0699 23.375 10.6887 23.375 11.4449C23.375 12.2012 22.7563 12.8199 22 12.8199Z" />
</g>
<defs>
<clipPath id="clip0_36_5">
<rect width="44" height="45" fill="white"/>
</clipPath>
</defs>
</svg>
